<svg width="289" height="45" viewBox="0 0 289 45" fill="none" xmlns="http://www.w3.org/2000/svg">
<path d="M27.424 4.216C27.7227 4.68533 27.9787 5.32533 28.192 6.136C28.448 6.904 28.576 7.71466 28.576 8.568C28.576 10.232 28.2133 11.4267 27.488 12.152C26.8053 12.8347 25.8667 13.176 24.672 13.176H11.232V20.408H25.248C25.5893 20.8773 25.8667 21.496 26.08 22.264C26.336 23.032 26.464 23.8427 26.464 24.696C26.464 26.3173 26.1013 27.4907 25.376 28.216C24.6933 28.8987 23.7547 29.24 22.56 29.24H11.36V42.744C10.8907 42.872 10.144 43 9.12 43.128C8.13867 43.256 7.15733 43.32 6.176 43.32C5.19467 43.32 4.32 43.2347 3.552 43.064C2.82667 42.936 2.208 42.68 1.696 42.296C1.184 41.912 0.8 41.3787 0.544 40.696C0.288 40.0133 0.16 39.1173 0.16 38.008V10.168C0.16 8.33333 0.693334 6.88266 1.76 5.816C2.82667 4.74933 4.27733 4.216 6.112 4.216H27.424ZM49.6825 36.088C50.4078 36.088 51.1972 36.024 52.0505 35.896C52.9465 35.7253 53.6078 35.512 54.0345 35.256V30.136L49.4265 30.52C48.2318 30.6053 47.2505 30.8613 46.4825 31.288C45.7145 31.7147 45.3305 32.3547 45.3305 33.208C45.3305 34.0613 45.6505 34.7653 46.2905 35.32C46.9732 35.832 48.1038 36.088 49.6825 36.088ZM49.1705 10.936C51.4745 10.936 53.5652 11.1707 55.4425 11.64C57.3625 12.1093 58.9838 12.8347 60.3065 13.816C61.6718 14.7547 62.7172 15.9707 63.4425 17.464C64.1678 18.9147 64.5305 20.6427 64.5305 22.648V36.984C64.5305 38.0933 64.2105 39.0107 63.5705 39.736C62.9732 40.4187 62.2478 41.016 61.3945 41.528C58.6212 43.192 54.7172 44.024 49.6825 44.024C47.4212 44.024 45.3732 43.8107 43.5385 43.384C41.7465 42.9573 40.1892 42.3173 38.8665 41.464C37.5865 40.6107 36.5838 39.5227 35.8585 38.2C35.1758 36.8773 34.8345 35.3413 34.8345 33.592C34.8345 30.648 35.7092 28.3867 37.4585 26.808C39.2078 25.2293 41.9172 24.248 45.5865 23.864L53.9705 22.968V22.52C53.9705 21.2827 53.4158 20.408 52.3065 19.896C51.2398 19.3413 49.6825 19.064 47.6345 19.064C46.0132 19.064 44.4345 19.2347 42.8985 19.576C41.3625 19.9173 39.9758 20.344 38.7385 20.856C38.1838 20.472 37.7145 19.896 37.3305 19.128C36.9465 18.3173 36.7545 17.4853 36.7545 16.632C36.7545 15.5227 37.0105 14.648 37.5225 14.008C38.0772 13.3253 38.9092 12.7493 40.0185 12.28C41.2558 11.8107 42.7065 11.4693 44.3705 11.256C46.0772 11.0427 47.6772 10.936 49.1705 10.936ZM95.713 42.168C95.1157 42.6373 94.241 43.0213 93.089 43.32C91.937 43.6187 90.6357 43.768 89.185 43.768C87.521 43.768 86.0703 43.5547 84.833 43.128C83.6383 42.7013 82.8063 42.0187 82.337 41.08C81.953 40.3547 81.4837 39.352 80.929 38.072C80.417 36.7493 79.8623 35.2987 79.265 33.72C78.6677 32.0987 78.049 30.3707 77.409 28.536C76.769 26.7013 76.1503 24.888 75.553 23.096C74.9983 21.304 74.4863 19.576 74.017 17.912C73.5477 16.248 73.1637 14.776 72.865 13.496C73.4623 12.8987 74.2517 12.3867 75.233 11.96C76.257 11.4907 77.3663 11.256 78.561 11.256C80.0543 11.256 81.2703 11.576 82.209 12.216C83.1903 12.8133 83.9157 13.9653 84.385 15.672L86.881 25.464C87.3503 27.384 87.7983 29.1333 88.225 30.712C88.6517 32.248 88.9717 33.4427 89.185 34.296H89.505C90.3157 31.1387 91.169 27.64 92.065 23.8C92.961 19.96 93.7717 16.184 94.497 12.472C95.2223 12.088 96.033 11.7893 96.929 11.576C97.8677 11.3627 98.7637 11.256 99.617 11.256C101.11 11.256 102.369 11.576 103.393 12.216C104.417 12.856 104.929 13.9653 104.929 15.544C104.929 16.2267 104.758 17.2293 104.417 18.552C104.118 19.832 103.713 21.304 103.201 22.968C102.732 24.5893 102.156 26.3173 101.473 28.152C100.833 29.9867 100.172 31.7787 99.489 33.528C98.8063 35.2773 98.1237 36.92 97.441 38.456C96.801 39.9493 96.225 41.1867 95.713 42.168ZM130.404 44.024C127.886 44.024 125.54 43.6827 123.364 43C121.23 42.2747 119.353 41.208 117.732 39.8C116.153 38.392 114.894 36.6213 113.956 34.488C113.06 32.3547 112.612 29.8587 112.612 27C112.612 24.184 113.06 21.7733 113.956 19.768C114.894 17.72 116.11 16.056 117.604 14.776C119.097 13.4533 120.804 12.4933 122.724 11.896C124.644 11.256 126.606 10.936 128.612 10.936C130.873 10.936 132.921 11.2773 134.756 11.96C136.633 12.6427 138.233 13.5813 139.556 14.776C140.921 15.9707 141.966 17.4 142.692 19.064C143.46 20.728 143.844 22.5413 143.844 24.504C143.844 25.9547 143.438 27.064 142.628 27.832C141.817 28.6 140.686 29.0907 139.236 29.304L123.428 31.672C123.897 33.08 124.857 34.1467 126.308 34.872C127.758 35.5547 129.422 35.896 131.3 35.896C133.049 35.896 134.692 35.6827 136.228 35.256C137.806 34.7867 139.086 34.2533 140.068 33.656C140.75 34.0827 141.326 34.68 141.796 35.448C142.265 36.216 142.5 37.0267 142.5 37.88C142.5 39.8 141.604 41.2293 139.812 42.168C138.446 42.8933 136.91 43.384 135.204 43.64C133.497 43.896 131.897 44.024 130.404 44.024ZM128.612 18.872C127.588 18.872 126.692 19.0427 125.924 19.384C125.198 19.7253 124.601 20.1733 124.132 20.728C123.662 21.24 123.3 21.8373 123.044 22.52C122.83 23.16 122.702 23.8213 122.66 24.504L133.604 22.712C133.476 21.8587 133.006 21.0053 132.196 20.152C131.385 19.2987 130.19 18.872 128.612 18.872ZM153.688 1.336C154.115 1.208 154.798 1.08 155.736 0.952C156.675 0.781333 157.635 0.695999 158.616 0.695999C159.555 0.695999 160.387 0.759998 161.112 0.887997C161.88 1.016 162.52 1.272 163.032 1.656C163.544 2.04 163.928 2.57333 164.184 3.256C164.44 3.896 164.568 4.74933 164.568 5.816V12.088C165.635 11.6613 166.638 11.3627 167.576 11.192C168.558 11.0213 169.624 10.936 170.776 10.936C172.824 10.936 174.766 11.2987 176.601 12.024C178.435 12.7493 180.056 13.816 181.465 15.224C182.873 16.5893 183.982 18.296 184.792 20.344C185.603 22.392 186.008 24.76 186.008 27.448C186.008 30.2213 185.582 32.6533 184.729 34.744C183.918 36.792 182.766 38.4987 181.272 39.864C179.779 41.2293 177.944 42.2747 175.768 43C173.635 43.6827 171.267 44.024 168.664 44.024C165.848 44.024 163.459 43.6827 161.496 43C159.534 42.36 157.87 41.5493 156.504 40.568C154.627 39.2453 153.688 37.5387 153.688 35.448V1.336ZM168.664 35.448C170.627 35.448 172.142 34.7867 173.208 33.464C174.318 32.0987 174.872 30.0933 174.872 27.448C174.872 24.76 174.318 22.7547 173.208 21.432C172.099 20.1093 170.606 19.448 168.728 19.448C167.875 19.448 167.128 19.5333 166.488 19.704C165.891 19.8747 165.23 20.1307 164.504 20.472V34.424C164.974 34.7227 165.528 34.9787 166.168 35.192C166.851 35.3627 167.683 35.448 168.664 35.448ZM288.616 37.368C288.402 39.3733 287.805 40.9093 286.824 41.976C285.885 43.0427 284.498 43.576 282.664 43.576C281.298 43.576 280.082 43.256 279.016 42.616C277.949 41.9333 276.797 40.8027 275.56 39.224L269.224 31.288V42.936C268.754 43.0213 268.05 43.128 267.112 43.256C266.216 43.4267 265.298 43.512 264.36 43.512C263.421 43.512 262.568 43.448 261.8 43.32C261.074 43.192 260.456 42.936 259.944 42.552C259.432 42.168 259.026 41.656 258.728 41.016C258.472 40.3333 258.344 39.4587 258.344 38.392V1.336C258.813 1.208 259.496 1.08 260.392 0.952C261.33 0.781333 262.269 0.695999 263.208 0.695999C264.146 0.695999 264.978 0.759998 265.704 0.887997C266.472 1.016 267.112 1.272 267.624 1.656C268.136 2.04 268.52 2.57333 268.776 3.256C269.074 3.896 269.224 4.74933 269.224 5.816V22.712L280.232 11.448C282.45 11.448 284.221 11.9387 285.544 12.92C286.909 13.9013 287.592 15.1387 287.592 16.632C287.592 17.272 287.485 17.8693 287.272 18.424C287.058 18.936 286.717 19.4693 286.248 20.024C285.821 20.5787 285.245 21.176 284.52 21.816C283.837 22.4133 283.026 23.1173 282.088 23.928L278.376 27.128L288.616 37.368Z" fill="black"/>
</svg>
